<svg xmlns="http://www.w3.org/2000/svg" width="1600" height="1000" viewBox="0 0 1600 1000" fill="none">
<defs>
  <linearGradient id="bg" x1="0" y1="0" x2="1600" y2="1000" gradientUnits="userSpaceOnUse">
    <stop stop-color="#193446"/>
    <stop offset="1" stop-color="#0f1f2a"/>
  </linearGradient>
  <linearGradient id="panel" x1="0" y1="0" x2="1" y2="1">
    <stop stop-color="rgba(255,255,255,0.14)"/>
    <stop offset="1" stop-color="rgba(255,255,255,0.04)"/>
  </linearGradient>
</defs>
<rect width="1600" height="1000" rx="36" fill="url(#bg)"/>
<circle cx="1420" cy="160" r="280" fill="#D88A2A" opacity="0.18"/>
<circle cx="200" cy="860" r="260" fill="#5DAAEF" opacity="0.12"/>
<rect x="72" y="72" width="1456" height="856" rx="28" fill="rgba(7,17,24,0.18)" stroke="rgba(255,255,255,0.18)"/>
<text x="110" y="170" fill="#F7C06A" font-family="Inter, Arial, sans-serif" font-size="34" font-weight="800" letter-spacing="4">PWI</text>
<text x="110" y="250" fill="#F7FAFC" font-family="Inter, Arial, sans-serif" font-size="78" font-weight="900">Kiln Drying</text>
<text x="110" y="320" fill="rgba(247,250,252,0.82)" font-family="Inter, Arial, sans-serif" font-size="30">Drying chamber placeholder</text>
<g opacity="0.9">
  <rect x="110" y="410" width="620" height="54" rx="18" fill="rgba(255,255,255,0.10)"/>
  <rect x="110" y="490" width="780" height="34" rx="10" fill="rgba(255,255,255,0.12)"/>
  <rect x="110" y="548" width="760" height="34" rx="10" fill="rgba(255,255,255,0.10)"/>
  <rect x="110" y="606" width="670" height="34" rx="10" fill="rgba(255,255,255,0.08)"/>
</g>
<g>
  <rect x="980" y="220" width="420" height="420" rx="32" fill="rgba(255,255,255,0.08)" stroke="rgba(255,255,255,0.18)"/>
  <rect x="1016" y="256" width="348" height="170" rx="24" fill="#A86D2B" opacity="0.22"/>
  <rect x="1016" y="452" width="110" height="150" rx="18" fill="rgba(255,255,255,0.14)"/>
  <rect x="1140" y="452" width="110" height="150" rx="18" fill="rgba(255,255,255,0.10)"/>
  <rect x="1264" y="452" width="100" height="150" rx="18" fill="#A86D2B" opacity="0.30"/>
</g>
<text x="110" y="860" fill="rgba(247,250,252,0.66)" font-family="Inter, Arial, sans-serif" font-size="24">Add your real photo here later</text>
</svg>